HIERARCHY
ROOT Hips
{
	OFFSET 0.000000 0.000000 0.000000
	CHANNELS 6 Xposition Yposition Zposition Zrotation Yrotation Xrotation 
	JOINT LHipJoint
	{
		OFFSET 0.000000 0.000000 0.000000
		CHANNELS 3 Zrotation Yrotation Xrotation
		JOINT LeftUpLeg
		{
			OFFSET 1.363060 -1.794630 0.839290
			CHANNELS 3 Zrotation Yrotation Xrotation
			JOINT LeftLeg
			{
				OFFSET 2.448110 -6.726130 0.000000
				CHANNELS 3 Zrotation Yrotation Xrotation
				JOINT LeftFoot
				{
					OFFSET 2.562200 -7.039590 0.000000
					CHANNELS 3 Zrotation Yrotation Xrotation
					JOINT LeftToeBase
					{
						OFFSET 0.157640 -0.433110 2.322550
						CHANNELS 3 Zrotation Yrotation Xrotation
						End Site
						{
							OFFSET 0.000000 0.000000 0.000000
						}
					}
				}
			}
		}
	}
	JOINT RHipJoint
	{
		OFFSET 0.000000 0.000000 0.000000
		CHANNELS 3 Zrotation Yrotation Xrotation
		JOINT RightUpLeg
		{
			OFFSET -1.305520 -1.794630 0.839290
			CHANNELS 3 Zrotation Yrotation Xrotation
			JOINT RightLeg
			{
				OFFSET -2.542530 -6.985550 0.000000
				CHANNELS 3 Zrotation Yrotation Xrotation
				JOINT RightFoot
				{
					OFFSET -2.568260 -7.056230 0.000000
					CHANNELS 3 Zrotation Yrotation Xrotation
					JOINT RightToeBase
					{
						OFFSET -0.164730 -0.452590 2.363150
						CHANNELS 3 Zrotation Yrotation Xrotation
						End Site
						{
							OFFSET 0.000000 0.000000 0.000000
						}
					}
				}
			}
		}
	}
	JOINT LowerBack
	{
		OFFSET 0.000000 0.000000 0.000000
		CHANNELS 3 Zrotation Yrotation Xrotation
		JOINT Spine
		{
			OFFSET 0.028270 2.035590 -0.193380
			CHANNELS 3 Zrotation Yrotation Xrotation
			JOINT Spine1
			{
				OFFSET 0.056720 2.048850 -0.042750
				CHANNELS 3 Zrotation Yrotation Xrotation
				JOINT Neck
				{
					OFFSET 0.000000 0.000000 0.000000
					CHANNELS 3 Zrotation Yrotation Xrotation
					JOINT Neck1
					{
						OFFSET -0.054170 1.746240 0.172020
						CHANNELS 3 Zrotation Yrotation Xrotation
						JOINT Head
						{
							OFFSET 0.104070 1.761360 -0.123970
							CHANNELS 3 Zrotation Yrotation Xrotation
							End Site
							{
								OFFSET 0.000000 0.000000 0.000000
							}
						}
					}
				}
				JOINT LeftShoulder
				{
					OFFSET 0.000000 0.000000 0.000000
					CHANNELS 3 Zrotation Yrotation Xrotation
					JOINT LeftArm
					{
						OFFSET 3.362410 1.200890 -0.311210
						CHANNELS 3 Zrotation Yrotation Xrotation
						JOINT LeftForeArm
						{
							OFFSET 4.983000 -0.000000 -0.000000
							CHANNELS 3 Zrotation Yrotation Xrotation
							JOINT LeftHand
							{
								OFFSET 3.483560 -0.000000 -0.000000
								CHANNELS 3 Zrotation Yrotation Xrotation
								JOINT LeftFingerBase
								{
									OFFSET 0.000000 0.000000 0.000000
									CHANNELS 3 Zrotation Yrotation Xrotation
									JOINT LeftHandIndex1
									{
										OFFSET 0.715260 -0.000000 -0.000000
										CHANNELS 3 Zrotation Yrotation Xrotation
										End Site
										{
											OFFSET 0.000000 0.000000 0.000000
										}
									}
								}
								JOINT LThumb
								{
									OFFSET 0.000000 0.000000 0.000000
									CHANNELS 3 Zrotation Yrotation Xrotation
									End Site
									{
										OFFSET 0.000000 0.000000 0.000000
									}
								}
							}
						}
					}
				}
				JOINT RightShoulder
				{
					OFFSET 0.000000 0.000000 0.000000
					CHANNELS 3 Zrotation Yrotation Xrotation
					JOINT RightArm
					{
						OFFSET -3.136600 1.374050 -0.404650
						CHANNELS 3 Zrotation Yrotation Xrotation
						JOINT RightForeArm
						{
							OFFSET -5.241900 -0.000000 -0.000000
							CHANNELS 3 Zrotation Yrotation Xrotation
							JOINT RightHand
							{
								OFFSET -3.444170 -0.000000 -0.000000
								CHANNELS 3 Zrotation Yrotation Xrotation
								JOINT RightFingerBase
								{
									OFFSET 0.000000 0.000000 0.000000
									CHANNELS 3 Zrotation Yrotation Xrotation
									JOINT RightHandIndex1
									{
										OFFSET -0.622530 -0.000000 -0.000000
										CHANNELS 3 Zrotation Yrotation Xrotation
										End Site
										{
											OFFSET 0.000000 0.000000 0.000000
										}
									}
								}
								JOINT RThumb
								{
									OFFSET 0.000000 0.000000 0.000000
									CHANNELS 3 Zrotation Yrotation Xrotation
									End Site
									{
										OFFSET 0.000000 0.000000 0.000000
									}
								}
							}
						}
					}
				}
			}
		}
	}
}
MOTION
Frames: 10
Frame Time: 0.016667
-1.388243 19.024294 24.508190 8.855425 -12.323119 -3.598100 -29.476569 15.896314 23.008446 29.700925 -29.712350 -26.327652 88.279254 -50.750986 -43.036951 98.652106 -79.927654 -126.546103 0.000000 0.000000 0.000000 36.099211 -39.433183 -34.887123 56.646762 51.667859 0.434811 65.116008 -6.673703 90.518413 26.163085 80.661532 -114.032373 0.000000 0.000000 0.000000 -3.104452 7.543700 23.246625 2.650451 0.390516 9.173649 6.972047 14.017857 -25.663407 13.774309 -37.801040 13.123441 14.863355 -8.660344 16.692439 0.000000 0.000000 0.000000 -7.697137 -17.040888 -73.316113 -3.775600 8.411233 43.316914 23.369057 -38.817515 22.630298 22.044007 71.277564 -33.544453 67.348849 51.605165 -180.000000 0.000000 0.000000 0.000000 0.000000 0.000000 0.000000 4.694377 -40.741472 -10.926270 45.419644 11.658451 -15.228366 176.108747 30.504287 170.150622 48.525322 -37.905946 -8.753621 56.691515 -30.349796 -0.000000 0.000000 0.000000 0.000000 0.000000 0.000000 0.000000 
-1.416637 19.041780 24.684397 9.754298 -11.297803 -4.289974 -29.490616 15.184656 24.003506 28.962725 -30.736632 -24.545512 88.227526 -50.057062 -41.811412 98.541776 -79.414377 -125.804121 0.000000 0.000000 0.000000 36.376857 -39.633191 -35.686484 54.819580 50.445117 -0.325958 65.963335 -8.385500 91.454416 25.520488 79.704739 -113.361776 0.000000 0.000000 0.000000 -2.255583 9.662612 20.677250 3.875258 3.793143 5.403528 1.384728 16.756218 -16.312621 18.660275 -39.182371 14.718287 20.923509 -10.254533 14.410508 0.000000 0.000000 0.000000 -22.013692 -10.072316 -68.646189 -74.433248 26.486746 -101.832299 30.746047 -39.026028 49.018670 38.260728 -8.274603 -47.633438 123.575280 25.593488 0.000000 0.000000 0.000000 0.000000 0.000000 0.000000 0.000000 10.709547 -42.055784 -12.640873 49.599252 10.606418 -17.074959 176.003402 33.018995 170.014468 48.239352 -37.751949 -8.986150 56.574967 -30.037181 -0.000000 0.000000 0.000000 0.000000 0.000000 0.000000 0.000000 
-1.441090 19.061504 24.858223 9.000349 -13.497285 -3.460686 -29.495654 14.276235 22.635075 28.688983 -31.113585 -23.826578 89.683124 -49.020494 -39.064190 97.556305 -78.901341 -125.483787 0.000000 0.000000 0.000000 37.457515 -36.961748 -35.749346 53.983443 49.413602 -0.994720 66.712469 -9.880078 92.371616 24.550822 78.823933 -112.646051 0.000000 0.000000 0.000000 -4.249157 4.071326 23.458707 5.762624 0.111191 16.486939 8.291262 19.700149 -23.071225 10.393805 -42.944096 14.522873 8.892716 -6.472416 13.388529 0.000000 0.000000 0.000000 0.478007 -16.869340 -45.736008 -58.397624 -33.828087 27.264224 51.729623 -30.665254 -32.272398 -34.793671 -86.925991 178.844768 177.324000 -70.663937 -0.000013 0.000000 0.000000 0.000000 0.000000 0.000000 0.000000 3.890231 -52.877095 -26.527880 43.222795 18.411501 -20.887720 -179.246072 34.957201 169.398996 47.317706 -37.144116 -9.834059 56.273572 -28.911197 -0.000000 0.000000 0.000000 0.000000 0.000000 0.000000 0.000000 
-1.461737 19.082663 25.028530 10.738766 -11.460496 -3.379336 -30.396030 13.361880 23.128470 27.266878 -32.429746 -22.341788 89.292673 -49.366758 -38.610391 97.894513 -78.558126 -124.479229 0.000000 0.000000 0.000000 36.953228 -37.561346 -37.072180 52.217282 48.528043 -2.009547 68.477893 -11.374754 93.801614 22.646919 78.121421 -111.418030 0.000000 0.000000 0.000000 -0.965582 7.346046 21.890668 3.706593 -3.447816 -8.134915 -17.983716 10.004576 -30.524203 -3.858392 -53.872938 26.141964 13.469066 -18.600394 20.760936 0.000000 0.000000 0.000000 -19.221083 -19.280135 -94.494487 -49.840960 -0.066271 127.759584 -68.361888 15.290418 -17.720769 -95.437165 86.452272 -71.198542 85.181026 -68.357868 -180.000000 0.000000 0.000000 0.000000 0.000000 0.000000 0.000000 2.760539 -42.753690 6.364197 48.959398 3.687080 -11.243702 173.369555 27.729063 170.111526 47.775498 -37.606997 -9.075682 56.213865 -29.727367 -0.000000 0.000000 0.000000 0.000000 0.000000 0.000000 0.000000 
-1.477948 19.104851 25.195317 11.102648 -9.523297 -1.680181 -30.754103 11.743431 22.182403 26.530815 -33.486173 -21.391489 88.754669 -49.193043 -37.939521 97.384488 -77.829999 -124.041266 0.000000 0.000000 0.000000 36.888411 -36.926400 -38.842093 50.822284 47.462174 -3.858801 70.314271 -12.654353 94.899938 19.894157 77.388548 -109.682805 0.000000 0.000000 0.000000 0.016153 10.273610 25.086575 7.612764 0.447083 -8.494550 -19.529552 13.658741 -30.694534 -6.083656 -59.322270 29.319388 13.344941 -19.983952 26.570776 0.000000 0.000000 0.000000 -14.169965 5.511567 -97.148937 -25.005697 -9.167902 164.287175 21.192714 60.157595 0.824596 91.510099 -10.450030 -20.210953 164.114519 47.377962 0.000001 0.000000 0.000000 0.000000 0.000000 0.000000 0.000000 3.006348 -56.718225 0.641687 54.094150 3.579500 -12.686406 173.988099 30.368281 169.720619 47.377104 -37.355727 -9.603692 56.234658 -29.084165 -0.000000 0.000000 0.000000 0.000000 0.000000 0.000000 0.000000 
-1.491303 19.126921 25.356926 9.630179 -9.918401 -2.557805 -29.243819 11.678721 23.128190 25.699044 -34.190172 -19.828505 88.538229 -48.186142 -36.057148 98.382341 -76.822594 -122.309788 0.000000 0.000000 0.000000 37.761877 -36.600902 -37.480346 49.739953 46.280652 -4.180256 72.639188 -14.748904 96.282269 15.657132 77.047765 -106.561062 0.000000 0.000000 0.000000 -3.478662 9.618517 20.323127 -5.408601 1.363096 4.604752 -5.742776 16.179069 -30.581375 -27.809421 -76.356824 4.396234 4.619921 -25.430502 8.524364 0.000000 0.000000 0.000000 -8.576238 -20.387307 -48.550029 -48.686863 -16.798672 92.562811 74.747697 46.253646 -94.646740 -69.193992 -5.008029 -141.349299 -85.457686 -62.986475 0.000200 0.000000 0.000000 0.000000 0.000000 0.000000 0.000000 28.093703 -49.995776 -18.850145 39.168551 4.791019 -20.435339 172.011995 35.850665 170.609215 48.035068 -38.011146 -8.760210 56.334065 -30.230567 -0.000000 0.000000 0.000000 0.000000 0.000000 0.000000 0.000000 
-1.502140 19.148589 25.513479 10.418163 -9.872832 -2.121919 -29.428572 11.116892 22.326842 25.280193 -34.722507 -18.518862 88.257700 -46.837720 -35.134202 96.621499 -76.036751 -122.754072 0.000000 0.000000 0.000000 37.673361 -35.021866 -38.080142 48.280458 45.014099 -4.939916 74.742546 -17.068936 97.522174 11.797457 77.174935 -103.686555 0.000000 0.000000 0.000000 -2.221968 8.544749 21.547738 6.879444 3.053096 8.360708 -13.192668 21.433047 -19.643914 25.069040 -56.473351 9.914092 7.423346 -12.130274 10.215304 0.000000 0.000000 0.000000 -50.417320 -22.215663 -80.937315 -61.586669 -65.278778 35.975746 -120.635227 -70.932209 -135.151332 -7.513208 -10.092239 -174.001833 134.939401 76.036516 -0.000003 0.000000 0.000000 0.000000 0.000000 0.000000 0.000000 18.153369 -63.631283 -25.099045 61.940523 16.701837 -20.645989 -179.604135 38.772342 168.677375 46.090352 -36.436741 -10.852857 55.852983 -27.521722 -0.000000 0.000000 0.000000 0.000000 0.000000 0.000000 0.000000 
-1.511382 19.169469 25.664861 9.833816 -12.117734 -1.195779 -28.811726 11.393192 21.894977 23.382814 -34.865626 -17.665965 86.671513 -45.977151 -32.968720 99.865054 -74.319105 -119.777179 0.000000 0.000000 0.000000 38.460991 -32.749422 -36.887435 47.759931 43.500470 -5.114196 77.235727 -20.183673 99.404040 6.994079 79.045122 -99.892748 0.000000 0.000000 0.000000 -4.516258 4.654495 21.036128 0.357607 -10.085908 6.117206 7.369791 21.268667 -1.001720 -20.634989 -55.141601 -36.482698 14.064312 -28.816879 -1.532215 0.000000 0.000000 0.000000 1.579675 39.526702 33.324314 73.738643 -75.302484 154.315493 -93.565688 63.371209 36.605672 116.281432 81.325592 -72.182736 168.718976 -58.714805 179.999999 0.000000 0.000000 0.000000 0.000000 0.000000 0.000000 32.372164 -31.578969 -30.771217 33.269206 18.060257 -16.712119 166.596844 34.136596 172.473163 48.743457 -40.283910 -8.054151 57.186470 -32.059982 -0.000000 0.000000 0.000000 0.000000 0.000000 0.000000 0.000000 
-1.519436 19.189440 25.811232 10.959502 -10.258373 -4.512814 -29.157149 11.885396 23.981782 22.136751 -36.025307 -15.925319 85.638606 -45.888203 -32.191502 98.617732 -74.245578 -119.531389 0.000000 0.000000 0.000000 36.605674 -35.176188 -35.643294 47.251231 41.497629 -5.432162 78.340279 -22.745993 100.533205 3.731947 82.906326 -97.891388 0.000000 0.000000 0.000000 0.299534 5.797334 7.476745 -19.933184 1.853633 25.019574 -6.140482 7.422565 -8.696840 -71.963210 -67.315530 -2.050390 -35.012628 -31.568684 -24.009513 0.000000 0.000000 0.000000 35.252654 -3.293208 -19.257919 -14.209211 -36.525053 -166.711001 102.968600 86.445042 -57.790926 -40.021019 44.151374 -133.342087 165.548829 -52.705633 -0.000002 0.000000 0.000000 0.000000 0.000000 0.000000 0.000000 38.943562 -10.768292 -5.903985 42.658406 9.343213 -16.205453 158.717533 41.884605 174.227192 48.307799 -40.225346 -5.977374 54.999768 -33.401072 -0.000000 0.000000 0.000000 0.000000 0.000000 0.000000 0.000000 
-1.526398 19.208802 25.953604 8.705275 -9.265475 -1.276867 -27.331021 10.317217 21.371437 21.588332 -36.144355 -14.388038 85.382753 -45.869835 -32.521650 99.130945 -72.340809 -120.226773 0.000000 0.000000 0.000000 38.983291 -32.549147 -37.215707 45.456563 39.695877 -8.488433 77.686201 -24.673392 101.176871 1.582129 86.678472 -96.901963 0.000000 0.000000 0.000000 -6.631979 7.194630 16.833828 -13.856225 1.308620 7.166069 -9.590802 3.560559 -25.162692 -52.454869 -42.245914 1.977161 -43.484388 -18.277062 -5.216978 0.000000 0.000000 0.000000 3.002837 -6.567623 -50.447541 -37.276213 -39.748380 48.469593 140.594054 -16.183756 165.235142 -107.051383 -64.683194 -105.172942 -53.599798 -6.613203 0.000000 0.000000 0.000000 0.000000 0.000000 0.000000 0.000000 40.496888 -21.694995 9.537114 33.991602 -6.011241 -8.803674 150.209171 41.043051 174.759708 48.929340 -41.062840 -5.614867 55.577200 -34.083062 -0.000000 0.000000 0.000000 0.000000 0.000000 0.000000 0.000000 
